<svg width="203" height="49" viewBox="0 0 203 49" fill="none" xmlns="http://www.w3.org/2000/svg">
<g clip-path="url(#clip0_1898_4782)">
<mask id="mask0_1898_4782" style="mask-type:luminance" maskUnits="userSpaceOnUse" x="0" y="4" width="45" height="45">
<path d="M0 4.75903H45V48.4243H0V4.75903Z" fill="white"/>
</mask>
<g mask="url(#mask0_1898_4782)">
<path fill-rule="evenodd" clip-rule="evenodd" d="M22.5348 48.3578L22.1832 48.1423L21.8306 47.9268L21.4791 47.7103L21.1255 47.4948L20.774 47.2793L20.4214 47.0637L20.0698 46.8472L19.7163 46.6317C13.1419 42.6384 6.57045 38.6382 0 34.6319V15.4678C7.50795 20.05 15.0199 24.6263 22.5348 29.1986V36.5198L5.97656 26.4407V30.9256L9.53688 33.0956V33.1274C13.8679 35.7651 18.1988 38.4028 22.5308 41.0405L22.5348 48.3578ZM0 12.0863V4.76501L22.5348 18.4819L45.0695 4.76501V37.1743L35.5287 42.9811V35.6598L39.09 33.4899V15.724L22.5348 25.8061L0 12.0863Z" fill="white"/>
</g>
<mask id="mask1_1898_4782" style="mask-type:luminance" maskUnits="userSpaceOnUse" x="0" y="4" width="22" height="10">
<path d="M0.0366211 4.77692H21.6468V13.3475H0.0366211V4.77692Z" fill="white"/>
</mask>
<g mask="url(#mask1_1898_4782)">
<path d="M0.0534668 4.79578L4.41721 13.3505L1.91059 6.53571C1.91059 6.53571 15.5321 7.68077 21.472 13.3505C21.472 13.3505 19.2911 6.70653 0.0534668 4.79578Z" fill="white"/>
</g>
<path d="M7.05811 1.65851V4.79576C16.8304 6.04907 22.221 11.6383 22.221 11.6383C18.2813 4.68751 7.05811 1.65851 7.05811 1.65851Z" fill="white"/>
<mask id="mask2_1898_4782" style="mask-type:luminance" maskUnits="userSpaceOnUse" x="12" y="0" width="11" height="11">
<path d="M12.7485 0H22.4096V10.1159H12.7485V0Z" fill="white"/>
</mask>
<g mask="url(#mask2_1898_4782)">
<path d="M12.8003 0V2.77675C19.0112 5.28238 22.212 9.96988 22.212 9.96988C20.0212 3.48881 12.8003 0 12.8003 0Z" fill="white"/>
</g>
<mask id="mask3_1898_4782" style="mask-type:luminance" maskUnits="userSpaceOnUse" x="23" y="4" width="22" height="10">
<path d="M23.4265 4.77692H44.9999V13.3475H23.4265V4.77692Z" fill="white"/>
</mask>
<g mask="url(#mask3_1898_4782)">
<path d="M45.0179 4.79578C25.7812 6.70653 23.5994 13.3505 23.5994 13.3505C29.5402 7.68077 43.1607 6.53571 43.1607 6.53571L40.6551 13.3505L45.0179 4.79578Z" fill="white"/>
</g>
<path d="M38.0235 1.65851C38.0235 1.65851 26.8003 4.67857 22.8606 11.6284C22.8606 11.6284 28.2512 6.04013 38.0235 4.78682V1.65851Z" fill="white"/>
<mask id="mask4_1898_4782" style="mask-type:luminance" maskUnits="userSpaceOnUse" x="22" y="0" width="11" height="11">
<path d="M22.6638 0H32.3248V10.1159H22.6638V0Z" fill="white"/>
</mask>
<g mask="url(#mask4_1898_4782)">
<path d="M32.2721 2.77675V0C32.2721 0 25.0512 3.48881 22.8604 9.96988C22.8604 9.96988 26.0602 5.28238 32.2721 2.77675Z" fill="white"/>
</g>
</g>
<g clip-path="url(#clip1_1898_4782)">
<path d="M64.0525 9.4874C64.3025 9.4874 64.5161 9.58636 64.6984 9.77906C64.8338 9.9874 64.8859 10.2166 64.8442 10.4666C64.8025 10.7061 64.7088 10.9978 64.5734 11.3416C63.6984 13.8832 62.8859 16.2166 62.1359 18.3416C61.3859 20.4666 60.7244 22.378 60.1567 24.0707L61.0525 24.6332C61.2869 24.7582 61.4067 24.9666 61.4067 25.2582C61.4067 25.5395 61.2869 25.7374 61.0525 25.8624L59.1984 26.9457C59.115 27.378 59.0734 27.852 59.0734 28.3624C59.0994 32.7791 59.0994 35.7895 59.0734 37.3832C59.0734 38.1905 59.0369 38.753 58.9692 39.0707C58.9119 39.3936 58.7192 39.5864 58.3859 39.6541C58.0525 39.727 57.4953 39.7582 56.7192 39.7582H55.1567C54.7505 39.7322 54.4692 39.6436 54.3025 39.4874C54.1463 39.3207 54.0421 39.0395 53.99 38.6332C53.99 38.4978 53.9796 38.227 53.9692 37.8207C53.9536 37.4041 53.9484 36.8728 53.9484 36.2166V29.7582C54.0005 28.8572 53.9067 27.9353 53.6567 26.9874L51.7817 25.8624C51.5578 25.7374 51.4484 25.5395 51.4484 25.2582C51.4484 24.9666 51.5578 24.7582 51.7817 24.6332L52.74 24.0291C52.5317 23.4041 52.3442 22.8728 52.1775 22.4249C52.0109 21.9666 51.8755 21.628 51.7817 21.4041L48.4484 11.7374C48.365 11.477 48.2869 11.227 48.2192 10.9874C48.1463 10.7374 48.0786 10.4978 48.0109 10.2582C47.9796 10.0916 48.0161 9.93531 48.115 9.77906C48.2244 9.6124 48.365 9.51865 48.5317 9.4874C50.0005 9.31031 51.4171 9.31031 52.7817 9.4874C53.1828 9.57073 53.4744 9.89365 53.6567 10.4457C53.7921 10.7791 53.938 11.1957 54.0942 11.6957C54.2609 12.1853 54.438 12.7322 54.6359 13.3416C54.7036 13.6072 54.8442 14.0707 55.0525 14.7374C55.2713 15.3936 55.438 15.9041 55.5525 16.2791C55.6359 16.5707 55.7453 16.8624 55.8859 17.1541C56.0369 17.4457 56.2296 17.5916 56.4692 17.5916C56.7609 17.5916 56.9484 17.4197 57.0317 17.0707C57.1411 16.753 57.2505 16.4197 57.365 16.0707C57.49 15.727 57.6203 15.3207 57.7609 14.8624C58.1359 13.6697 58.4484 12.6905 58.6984 11.9249C58.9484 11.1645 59.1411 10.5916 59.2817 10.2166C59.4484 9.75823 59.7817 9.50302 60.2817 9.44573C61.0578 9.44573 61.7609 9.44573 62.3859 9.44573C63.0213 9.44573 63.5786 9.46136 64.0525 9.4874Z" fill="white"/>
<path d="M94.2144 30.2374C94.1832 30.5187 94.1728 30.8624 94.1728 31.2791C94.1728 31.6853 94.1728 32.128 94.1728 32.6124C94.1988 34.3208 93.6363 35.8624 92.4853 37.2374C91.8446 37.9874 91.204 38.5447 90.5686 38.9041C89.9436 39.2687 89.178 39.5187 88.2769 39.6541C87.3863 39.7791 86.2613 39.8312 84.9019 39.8208C83.553 39.8051 81.8499 39.7843 79.7978 39.7583C79.3394 39.7583 78.9905 39.6437 78.7561 39.4041C78.6155 39.2374 78.5321 38.977 78.5061 38.6124C78.4749 38.253 78.4644 37.7114 78.4644 36.9874V26.1541L76.7144 25.1541C76.4905 25.0187 76.3811 24.8155 76.3811 24.5499C76.3811 24.2583 76.4905 24.0447 76.7144 23.9041L78.4644 22.9041V11.4666C78.4644 10.3989 78.5478 9.77908 78.7144 9.61242C78.9488 9.37804 79.3707 9.25825 79.9853 9.25825C80.6103 9.25825 81.7457 9.27387 83.4019 9.29992C83.9696 9.29992 84.4749 9.29992 84.9228 9.29992C85.3811 9.29992 85.7821 9.2895 86.1311 9.25825C88.1155 9.23221 89.803 9.79471 91.1936 10.9457C91.8863 11.5603 92.454 12.352 92.9019 13.3207C93.3446 14.2791 93.6311 15.3207 93.7561 16.4457C93.8915 17.5603 93.8446 18.6697 93.6103 19.7791C93.3863 20.8937 92.9436 21.878 92.2769 22.7374C91.9853 23.1437 91.8394 23.477 91.8394 23.7374C91.8394 23.9874 92.0113 24.3208 92.3603 24.7374C93.6624 26.1853 94.2821 28.0187 94.2144 30.2374ZM84.0061 15.7999C83.9228 16.3312 83.8603 16.9457 83.8186 17.6541C83.7874 18.3624 83.8394 19.0291 83.9644 19.6541C84.0999 20.2687 84.3655 20.7322 84.7561 21.0499C85.1415 21.3728 85.7144 21.3989 86.4644 21.1333C87.0165 20.9666 87.4228 20.6645 87.6728 20.2166C88.1155 19.4405 88.3394 18.5655 88.3394 17.5916L88.0686 16.2791C87.6936 15.1541 86.9436 14.5499 85.8186 14.4666C85.2769 14.4145 84.8603 14.4874 84.5686 14.6957C84.2769 14.8937 84.0894 15.2582 84.0061 15.7999ZM88.0269 33.2166C88.8603 31.6333 88.9644 29.9874 88.3394 28.2791C88.0999 27.6124 87.6311 27.0812 86.9228 26.6749C86.2144 26.2739 85.553 26.2166 84.9436 26.5083C84.5686 26.7062 84.3082 26.9353 84.1728 27.1958C84.0321 27.4614 83.9644 27.8572 83.9644 28.3833C83.9644 28.8989 83.9644 29.6437 83.9644 30.6124C83.9644 31.6853 83.9644 32.4978 83.9644 33.0499C83.9644 33.5916 84.053 33.977 84.2353 34.1958C84.428 34.4041 84.7665 34.5291 85.2561 34.5708C86.5894 34.602 87.5113 34.1489 88.0269 33.2166Z" fill="white"/>
<path d="M111.506 35.5499C111.558 36.1072 111.579 36.6645 111.568 37.2166C111.553 37.7582 111.516 38.2895 111.464 38.7999C111.422 39.3312 111.183 39.6228 110.756 39.6749C110.323 39.7322 109.881 39.7582 109.422 39.7582H100.027C99.7349 39.7582 99.4224 39.7478 99.089 39.7166C98.7557 39.6905 98.4901 39.5864 98.2974 39.4041C98.089 39.2374 97.9744 38.9822 97.964 38.6332C97.9484 38.2895 97.9432 37.7114 97.9432 36.9041V26.1957L96.214 25.1957C95.9744 25.0603 95.8599 24.8572 95.8599 24.5916C95.8599 24.3416 95.9744 24.1437 96.214 23.9874L97.9432 22.9874V11.6957C97.9432 10.977 97.9744 10.4562 98.0474 10.1332C98.1151 9.81553 98.3026 9.62282 98.6099 9.54991C98.9119 9.4822 99.4119 9.44574 100.11 9.44574H109.464C110.381 9.44574 110.969 9.5447 111.235 9.73741C111.386 9.86241 111.485 10.1489 111.527 10.5916C111.568 11.0395 111.579 11.5187 111.568 12.0291C111.553 12.5291 111.532 12.9562 111.506 13.2999C111.474 13.8155 111.245 14.102 110.818 14.1541C110.402 14.2114 109.87 14.2374 109.235 14.2374H104.964C104.24 14.2791 103.756 14.4353 103.506 14.6957C103.256 14.9457 103.099 15.4041 103.047 16.0707C103.016 16.7947 103.011 17.5187 103.027 18.2374C103.037 18.9614 103.058 19.6697 103.089 20.3624C103.089 20.878 103.219 21.2947 103.485 21.6124C103.745 21.852 104.115 21.9822 104.589 22.0082C105.058 22.0395 105.631 22.0499 106.297 22.0499C106.641 22.0499 106.943 22.0499 107.193 22.0499C107.454 22.0499 107.662 22.0655 107.818 22.0916C108.329 22.0916 108.672 22.1905 108.839 22.3832C109.016 22.5655 109.12 22.9145 109.152 23.4249C109.178 23.8832 109.193 24.3416 109.193 24.7999C109.193 25.2478 109.162 25.6957 109.11 26.1541C109.11 26.7374 108.797 27.0603 108.172 27.1124C107.849 27.1437 107.443 27.1541 106.943 27.1541C106.454 27.1541 105.891 27.1541 105.256 27.1541C104.448 27.1541 103.902 27.2739 103.61 27.5082C103.318 27.7322 103.141 28.3103 103.089 29.2374C103.058 29.753 103.037 30.3103 103.027 30.9041C103.011 31.4874 103.016 32.1124 103.047 32.7791C103.099 33.477 103.256 33.9562 103.506 34.2166C103.756 34.4822 104.24 34.628 104.964 34.6541H109.193C109.86 34.6853 110.391 34.7166 110.797 34.7582C111.198 34.7999 111.433 35.0655 111.506 35.5499Z" fill="white"/>
<path d="M127.565 25.2999C129.732 27.7738 130.591 30.6124 130.148 33.8207C129.982 35.1853 129.404 36.4405 128.419 37.5915C127.794 38.3415 127.232 38.8572 126.732 39.1332C126.242 39.4145 125.695 39.5707 125.086 39.6124C124.487 39.654 123.695 39.7061 122.711 39.7582C121.086 39.8415 119.654 39.5082 118.419 38.7582C117.638 38.2738 117.091 37.779 116.773 37.279C115.758 35.727 115.138 34.2113 114.919 32.7374C114.888 32.4197 114.883 32.0447 114.898 31.6124C114.909 31.1853 115.148 30.9405 115.607 30.8832C116.326 30.7582 116.93 30.6697 117.419 30.6124C117.919 30.5603 118.279 30.529 118.503 30.529C118.93 30.503 119.253 30.5707 119.461 30.7374C119.669 30.8936 119.826 31.1957 119.94 31.654C119.94 31.6853 119.951 31.753 119.982 31.8624C120.008 31.9613 120.034 32.0811 120.065 32.2165C120.174 32.6905 120.32 33.0915 120.503 33.4249C121.195 34.6488 122.076 35.128 123.148 34.8624C123.659 34.727 124.107 34.4145 124.482 33.9249C124.857 33.4249 125.044 32.8832 125.044 32.2999C125.07 31.4405 124.971 30.7738 124.753 30.2999C124.544 29.8155 124.211 29.3415 123.753 28.8832C123.294 28.4249 122.68 27.8207 121.919 27.0707L121.544 26.6749H119.211C118.919 26.7061 118.701 26.602 118.565 26.3624C118.44 26.1124 118.43 25.8728 118.544 25.6332L119.253 24.4249L118.023 23.2165C115.924 20.9405 114.987 18.3415 115.211 15.4249C115.362 13.7165 115.909 12.2947 116.857 11.154C117.815 10.0186 118.987 9.27384 120.378 8.92488C121.961 8.52384 123.336 8.45613 124.503 8.71654C125.669 8.96654 126.638 9.43529 127.419 10.1124C128.211 10.7947 128.815 11.5863 129.232 12.4874C129.648 13.378 129.909 14.279 130.023 15.1957C130.107 15.654 129.919 15.977 129.461 16.154C128.253 16.5603 127.138 16.7582 126.128 16.7582C125.612 16.7582 125.263 16.529 125.086 16.0707L124.648 14.9457C124.315 14.1697 123.846 13.7061 123.253 13.5499C122.654 13.3832 122.107 13.477 121.607 13.8207C121.107 14.1697 120.794 14.7478 120.669 15.5499C120.445 17.1905 120.982 18.7478 122.273 20.2165C122.326 20.3155 122.482 20.4874 122.732 20.7374C122.982 20.977 123.174 21.1749 123.315 21.3415H125.398C125.69 21.3415 125.898 21.4613 126.023 21.6957C126.148 21.9353 126.138 22.1645 126.003 22.3832L125.523 23.2582C125.924 23.6072 126.273 23.9197 126.565 24.1957C126.857 24.4613 127.19 24.8311 127.565 25.2999Z" fill="white"/>
<path d="M146.011 9.44574C146.704 9.44574 147.188 9.47699 147.469 9.52907C147.761 9.58637 147.938 9.75303 148.011 10.0291C148.094 10.3103 148.136 10.7895 148.136 11.4666C148.136 11.9145 148.136 12.2947 148.136 12.6124C148.136 12.9197 148.115 13.1645 148.074 13.3416C148.074 13.6905 148.001 13.9614 147.865 14.1541C147.699 14.3103 147.469 14.3989 147.178 14.4249C146.886 14.4562 146.537 14.4666 146.136 14.4666C145.704 14.4666 145.271 14.4822 144.844 14.5082C144.428 14.5395 144.094 14.6853 143.844 14.9457C143.579 15.1697 143.433 15.503 143.407 15.9457C143.376 16.378 143.365 17.0082 143.365 17.8416V22.9457L145.261 24.0291C145.495 24.2114 145.615 24.4145 145.615 24.6332C145.615 24.9249 145.495 25.1489 145.261 25.2999L143.365 26.3832V37.1124C143.365 37.8937 143.344 38.5187 143.303 38.9874C143.261 39.4457 142.975 39.7062 142.449 39.7582C141.324 39.7843 140.24 39.7843 139.199 39.7582C138.657 39.7322 138.365 39.4874 138.324 39.0291C138.282 38.5603 138.261 38.0082 138.261 37.3832V26.4249L136.261 25.2999C136.053 25.1749 135.949 24.9562 135.949 24.6332C135.949 24.4145 136.053 24.2114 136.261 24.0291L138.261 22.9041V17.4041C138.261 16.6541 138.24 16.1072 138.199 15.7582C138.167 15.4145 138.058 15.1437 137.865 14.9457C137.657 14.7114 137.35 14.5707 136.949 14.5291C136.542 14.4874 136.126 14.4666 135.699 14.4666C135.459 14.4666 135.251 14.4666 135.074 14.4666C134.907 14.4666 134.782 14.4562 134.699 14.4249C134.266 14.3989 133.959 14.3155 133.782 14.1749C133.615 14.0239 133.516 13.7322 133.49 13.2999C133.433 12.3728 133.433 11.3989 133.49 10.3832C133.49 10.0812 133.574 9.83637 133.74 9.65407C133.917 9.51866 134.146 9.44574 134.428 9.44574C134.719 9.44574 135.115 9.44574 135.615 9.44574H146.011Z" fill="white"/>
<path d="M185.059 24.0707C185.294 24.227 185.413 24.4353 185.413 24.6957C185.413 24.9457 185.294 25.1488 185.059 25.2999L183.33 26.2791V37.2791C183.33 37.8936 183.299 38.4457 183.247 38.9457C183.189 39.4353 182.913 39.7061 182.413 39.7582C181.288 39.8676 180.148 39.8676 178.997 39.7582C178.564 39.7061 178.33 39.4666 178.288 39.0499C178.247 38.6332 178.226 38.1488 178.226 37.5916V31.9666C178.226 31.4405 178.184 30.9666 178.101 30.5499C178.028 30.1332 177.924 29.7686 177.788 29.4457C177.757 29.3363 177.669 29.2791 177.518 29.2791C177.403 29.2791 177.309 29.3207 177.226 29.4041C177.018 29.6436 176.856 30.0707 176.747 30.6957L175.83 35.2166C175.689 35.9405 175.549 36.5811 175.413 37.1332C175.288 37.6749 175.184 38.1488 175.101 38.5499C174.986 39.0082 174.83 39.3416 174.622 39.5499C174.455 39.6905 174.08 39.7686 173.497 39.7999C172.913 39.8259 172.32 39.8259 171.726 39.7999C171.294 39.7686 170.986 39.6905 170.809 39.5499C170.643 39.3988 170.507 39.1228 170.413 38.7166C170.33 38.3416 170.21 37.8416 170.059 37.2166C169.919 36.5811 169.778 35.9822 169.643 35.4249C169.502 34.8572 169.398 34.4666 169.33 34.2582C169.132 33.2478 168.939 32.352 168.747 31.5707C168.564 30.7947 168.398 30.128 168.247 29.5707C168.215 29.4353 168.169 29.2791 168.101 29.1124C168.028 28.9353 167.939 28.727 167.83 28.4874C167.731 28.3207 167.606 28.2582 167.455 28.2999C167.299 28.3416 167.21 28.4041 167.184 28.4874C167.028 28.7791 166.955 29.2895 166.955 30.0082V37.3832C166.955 37.9822 166.924 38.5186 166.872 38.9874C166.814 39.4457 166.507 39.7166 165.955 39.7999C164.913 39.8832 163.84 39.8832 162.747 39.7999C162.231 39.7478 161.955 39.503 161.913 39.0707C161.872 38.6436 161.851 38.0655 161.851 37.3416V26.2791L160.122 25.2999C159.882 25.1488 159.768 24.9457 159.768 24.6957C159.768 24.4353 159.882 24.227 160.122 24.0707L161.851 23.0916V11.9041C161.851 11.2686 161.872 10.7166 161.913 10.2582C161.955 9.79989 162.252 9.5603 162.809 9.52905H168.08C168.58 9.52905 168.898 9.81551 169.038 10.3832L169.643 13.3832L171.893 24.7791C171.919 24.8936 171.96 25.0447 172.018 25.2374C172.085 25.4197 172.163 25.6436 172.247 25.9041C172.33 26.1541 172.486 26.2947 172.726 26.3207C172.976 26.3363 173.174 26.1697 173.33 25.8207C173.382 25.6957 173.413 25.5811 173.413 25.4666L174.455 19.8416C174.674 18.6905 174.872 17.6436 175.038 16.6957C175.215 15.753 175.382 14.9353 175.538 14.2374C175.59 14.0186 175.643 13.7478 175.684 13.4249C175.726 13.1072 175.788 12.7582 175.872 12.3832C176.049 11.3988 176.189 10.6749 176.288 10.2166C176.382 9.75822 176.752 9.52905 177.393 9.52905C179.361 9.47697 181.007 9.47697 182.33 9.52905C182.913 9.5603 183.226 9.79468 183.268 10.2374C183.309 10.6853 183.33 11.227 183.33 11.8624V23.0916L185.059 24.0707Z" fill="white"/>
<path d="M202.646 35.5499C202.698 36.1072 202.719 36.6645 202.708 37.2166C202.692 37.7582 202.656 38.2895 202.604 38.7999C202.562 39.3312 202.323 39.6228 201.896 39.6749C201.463 39.7322 201.021 39.7582 200.562 39.7582H191.166C190.875 39.7582 190.562 39.7478 190.229 39.7166C189.896 39.6905 189.63 39.5864 189.437 39.4041C189.229 39.2374 189.114 38.9822 189.104 38.6332C189.088 38.2895 189.083 37.7114 189.083 36.9041V26.1957L187.354 25.1957C187.114 25.0603 187 24.8572 187 24.5916C187 24.3416 187.114 24.1437 187.354 23.9874L189.083 22.9874V11.6957C189.083 10.977 189.114 10.4562 189.187 10.1332C189.255 9.81553 189.442 9.62282 189.75 9.54991C190.052 9.4822 190.552 9.44574 191.25 9.44574H200.604C201.521 9.44574 202.109 9.5447 202.375 9.73741C202.526 9.86241 202.625 10.1489 202.666 10.5916C202.708 11.0395 202.719 11.5187 202.708 12.0291C202.692 12.5291 202.672 12.9562 202.646 13.2999C202.614 13.8155 202.385 14.102 201.958 14.1541C201.541 14.2114 201.01 14.2374 200.375 14.2374H196.104C195.38 14.2791 194.896 14.4353 194.646 14.6957C194.396 14.9457 194.239 15.4041 194.187 16.0707C194.156 16.7947 194.151 17.5187 194.166 18.2374C194.177 18.9614 194.198 19.6697 194.229 20.3624C194.229 20.878 194.359 21.2947 194.625 21.6124C194.885 21.852 195.255 21.9822 195.729 22.0082C196.198 22.0395 196.771 22.0499 197.437 22.0499C197.781 22.0499 198.083 22.0499 198.333 22.0499C198.594 22.0499 198.802 22.0655 198.958 22.0916C199.469 22.0916 199.812 22.1905 199.979 22.3832C200.156 22.5655 200.26 22.9145 200.291 23.4249C200.317 23.8832 200.333 24.3416 200.333 24.7999C200.333 25.2478 200.302 25.6957 200.25 26.1541C200.25 26.7374 199.937 27.0603 199.312 27.1124C198.989 27.1437 198.583 27.1541 198.083 27.1541C197.594 27.1541 197.031 27.1541 196.396 27.1541C195.588 27.1541 195.041 27.2739 194.75 27.5082C194.458 27.7322 194.281 28.3103 194.229 29.2374C194.198 29.753 194.177 30.3103 194.166 30.9041C194.151 31.4874 194.156 32.1124 194.187 32.7791C194.239 33.477 194.396 33.9562 194.646 34.2166C194.896 34.4822 195.38 34.628 196.104 34.6541H200.333C201 34.6853 201.531 34.7166 201.937 34.7582C202.338 34.7999 202.573 35.0655 202.646 35.5499Z" fill="white"/>
</g>
<defs>
<clipPath id="clip0_1898_4782">
<rect width="45" height="48.4243" fill="white"/>
</clipPath>
<clipPath id="clip1_1898_4782">
<rect width="154.712" height="31.3005" fill="white" transform="translate(48 8.56186)"/>
</clipPath>
</defs>
</svg>
